HIERARCHY
ROOT Hips
{
	OFFSET 0.000000 83.214638 0.000000
	CHANNELS 6 Xposition Yposition Zposition Xrotation Yrotation Zrotation
	JOINT Pelvis
	{
		OFFSET 0.000000 0.000000 0.000000
		CHANNELS 3 Xrotation Yrotation Zrotation
		JOINT LeftUpLeg
		{
			OFFSET 8.479700 -4.795502 -0.379100
			CHANNELS 3 Xrotation Yrotation Zrotation
			JOINT LeftLeg
			{
				OFFSET 0.024144 -32.555107 0.112900
				CHANNELS 3 Xrotation Yrotation Zrotation
				JOINT LeftFoot
				{
					OFFSET -0.024144 -32.638630 -3.012600
					CHANNELS 3 Xrotation Yrotation Zrotation
					JOINT LeftToeBase
					{
						OFFSET 0.970200 -13.225400 11.864200
						CHANNELS 3 Xrotation Yrotation Zrotation
						End Site
						{
							OFFSET 0.000000 12.319262 0.000000
						}
					}
					JOINT LFootTongue
					{
						OFFSET 1.142400 -1.059800 6.665200
						CHANNELS 3 Xrotation Yrotation Zrotation
						End Site
						{
							OFFSET 0.000000 12.319262 0.000000
						}
					}
				}
				JOINT LeftPantLeg
				{
					OFFSET 0.918482 -16.533964 -2.284700
					CHANNELS 3 Xrotation Yrotation Zrotation
					End Site
					{
						OFFSET 0.350399 24.744368 0.000000
					}
				}
			}
		}
		JOINT RightUpLeg
		{
			OFFSET -8.479700 -4.795502 -0.379100
			CHANNELS 3 Xrotation Yrotation Zrotation
			JOINT RightLeg
			{
				OFFSET -0.023144 -32.555092 0.112900
				CHANNELS 3 Xrotation Yrotation Zrotation
				JOINT RightFoot
				{
					OFFSET 0.023144 -32.638641 -3.012700
					CHANNELS 3 Xrotation Yrotation Zrotation
					JOINT RightToeBase
					{
						OFFSET -0.970200 -13.225400 11.864200
						CHANNELS 3 Xrotation Yrotation Zrotation
						End Site
						{
							OFFSET 0.000000 12.319244 0.000000
						}
					}
					JOINT RFootTongue
					{
						OFFSET -1.142200 -1.059800 6.665200
						CHANNELS 3 Xrotation Yrotation Zrotation
						End Site
						{
							OFFSET 0.000000 12.319243 0.000000
						}
					}
				}
				JOINT RightPantLeg
				{
					OFFSET -0.919482 -16.533978 -2.284800
					CHANNELS 3 Xrotation Yrotation Zrotation
					End Site
					{
						OFFSET -0.350400 24.744419 0.000000
					}
				}
			}
		}
	}
	JOINT Spine
	{
		OFFSET 0.000000 7.722000 1.166200
		CHANNELS 3 Xrotation Yrotation Zrotation
		JOINT Spine1
		{
			OFFSET 0.000000 12.024101 0.248800
			CHANNELS 3 Xrotation Yrotation Zrotation
			JOINT Spine2
			{
				OFFSET 0.000000 11.502998 -0.491200
				CHANNELS 3 Xrotation Yrotation Zrotation
				JOINT Neck
				{
					OFFSET 0.000000 18.430702 -3.123100
					CHANNELS 3 Xrotation Yrotation Zrotation
					JOINT Head
					{
						OFFSET 0.000000 9.051102 1.034000
						CHANNELS 3 Xrotation Yrotation Zrotation
						JOINT HairB
						{
							OFFSET 0.208400 24.786102 24.822300
							CHANNELS 3 Xrotation Yrotation Zrotation
							End Site
							{
								OFFSET 0.000000 32.263779 0.000000
							}
						}
						JOINT HairA
						{
							OFFSET -7.081100 24.428299 23.196600
							CHANNELS 3 Xrotation Yrotation Zrotation
							End Site
							{
								OFFSET 0.000000 32.263779 0.000000
							}
						}
						JOINT Hat
						{
							OFFSET 16.728800 15.048294 -15.439601
							CHANNELS 3 Xrotation Yrotation Zrotation
							End Site
							{
								OFFSET 0.000000 32.263779 0.000000
							}
						}
					}
				}
				JOINT LeftShoulder
				{
					OFFSET 6.197800 13.665199 -4.064700
					CHANNELS 3 Xrotation Yrotation Zrotation
					JOINT LeftArm
					{
						OFFSET 7.778100 -0.187103 -1.709300
						CHANNELS 3 Xrotation Yrotation Zrotation
						JOINT LeftForeArm
						{
							OFFSET 22.049376 0.000000 0.000000
							CHANNELS 3 Xrotation Yrotation Zrotation
							JOINT LeftHand
							{
								OFFSET 23.009392 0.000000 0.000000
								CHANNELS 3 Xrotation Yrotation Zrotation
								JOINT LeftHandThumb1
								{
									OFFSET 3.507191 -2.063065 3.133727
									CHANNELS 3 Xrotation Yrotation Zrotation
									JOINT LeftHandThumb2
									{
										OFFSET 3.101337 -1.790558 1.790558
										CHANNELS 3 Xrotation Yrotation Zrotation
										JOINT LeftHandThumb3
										{
											OFFSET 3.058640 -1.765907 1.765906
											CHANNELS 3 Xrotation Yrotation Zrotation
											End Site
											{
												OFFSET -0.415260 3.926476 -0.049563
											}
										}
									}
								}
								JOINT LeftHandIndex1
								{
									OFFSET 11.334419 -0.901459 3.706815
									CHANNELS 3 Xrotation Yrotation Zrotation
									JOINT LeftHandIndex2
									{
										OFFSET 3.283112 0.000000 0.000000
										CHANNELS 3 Xrotation Yrotation Zrotation
										JOINT LeftHandIndex3
										{
											OFFSET 3.323853 0.000000 0.000000
											CHANNELS 3 Xrotation Yrotation Zrotation
											End Site
											{
												OFFSET -1.135597 3.097809 0.402452
											}
										}
									}
								}
								JOINT LeftHandMiddle1
								{
									OFFSET 11.335861 0.000000 0.000000
									CHANNELS 3 Xrotation Yrotation Zrotation
									JOINT LeftHandMiddle2
									{
										OFFSET 3.410492 0.000000 0.000000
										CHANNELS 3 Xrotation Yrotation Zrotation
										JOINT LeftHandMiddle3
										{
											OFFSET 3.312172 0.000000 0.000000
											CHANNELS 3 Xrotation Yrotation Zrotation
											End Site
											{
												OFFSET -1.150200 3.080154 0.400270
											}
										}
									}
								}
								JOINT LeftHandRing1
								{
									OFFSET 11.514786 -0.013176 -3.003090
									CHANNELS 3 Xrotation Yrotation Zrotation
									JOINT LeftHandRing2
									{
										OFFSET 3.053307 0.000000 0.000000
										CHANNELS 3 Xrotation Yrotation Zrotation
										JOINT LeftHandRing3
										{
											OFFSET 3.295807 0.000000 0.000000
											CHANNELS 3 Xrotation Yrotation Zrotation
											End Site
											{
												OFFSET -1.281006 3.013344 0.375733
											}
										}
									}
								}
								JOINT LeftHandPinky1
								{
									OFFSET 10.518692 -0.960396 -5.730441
									CHANNELS 3 Xrotation Yrotation Zrotation
									JOINT LeftHandPinky2
									{
										OFFSET 2.861649 0.000000 0.000000
										CHANNELS 3 Xrotation Yrotation Zrotation
										JOINT LeftHandPinky3
										{
											OFFSET 2.863380 0.000000 0.000000
											CHANNELS 3 Xrotation Yrotation Zrotation
											End Site
											{
												OFFSET -0.843597 2.711159 0.369971
											}
										}
									}
								}
							}
							JOINT LSleeve
							{
								OFFSET 6.676277 -0.344902 -1.011730
								CHANNELS 3 Xrotation Yrotation Zrotation
								End Site
								{
									OFFSET 0.000000 14.885353 0.000000
								}
							}
						}
					}
				}
				JOINT RightShoulder
				{
					OFFSET -6.197800 13.665199 -4.064700
					CHANNELS 3 Xrotation Yrotation Zrotation
					JOINT RightArm
					{
						OFFSET -7.778100 -0.187103 -1.709300
						CHANNELS 3 Xrotation Yrotation Zrotation
						JOINT RightForeArm
						{
							OFFSET -22.049376 0.000000 0.000000
							CHANNELS 3 Xrotation Yrotation Zrotation
							JOINT RightHand
							{
								OFFSET -23.009392 0.000000 0.000000
								CHANNELS 3 Xrotation Yrotation Zrotation
								JOINT RightHandThumb1
								{
									OFFSET -3.507191 -2.063065 3.133727
									CHANNELS 3 Xrotation Yrotation Zrotation
									JOINT RightHandThumb2
									{
										OFFSET -3.101337 -1.790558 1.790558
										CHANNELS 3 Xrotation Yrotation Zrotation
										JOINT RightHandThumb3
										{
											OFFSET -3.058640 -1.765907 1.765906
											CHANNELS 3 Xrotation Yrotation Zrotation
											End Site
											{
												OFFSET 0.415260 3.926476 -0.049563
											}
										}
									}
								}
								JOINT RightHandIndex1
								{
									OFFSET -11.334419 -0.901459 3.706815
									CHANNELS 3 Xrotation Yrotation Zrotation
									JOINT RightHandIndex2
									{
										OFFSET -3.283112 0.000000 0.000000
										CHANNELS 3 Xrotation Yrotation Zrotation
										JOINT RightHandIndex3
										{
											OFFSET -3.323853 0.000000 0.000000
											CHANNELS 3 Xrotation Yrotation Zrotation
											End Site
											{
												OFFSET 1.135597 3.097809 0.402452
											}
										}
									}
								}
								JOINT RightHandMiddle1
								{
									OFFSET -11.335861 0.000000 0.000000
									CHANNELS 3 Xrotation Yrotation Zrotation
									JOINT RightHandMiddle2
									{
										OFFSET -3.410492 0.000000 0.000000
										CHANNELS 3 Xrotation Yrotation Zrotation
										JOINT RightHandMiddle3
										{
											OFFSET -3.312172 0.000000 0.000000
											CHANNELS 3 Xrotation Yrotation Zrotation
											End Site
											{
												OFFSET 1.150200 3.080154 0.400270
											}
										}
									}
								}
								JOINT RightHandRing1
								{
									OFFSET -11.514786 -0.013176 -3.003090
									CHANNELS 3 Xrotation Yrotation Zrotation
									JOINT RightHandRing2
									{
										OFFSET -3.053307 0.000000 0.000000
										CHANNELS 3 Xrotation Yrotation Zrotation
										JOINT RightHandRing3
										{
											OFFSET -3.295807 0.000000 0.000000
											CHANNELS 3 Xrotation Yrotation Zrotation
											End Site
											{
												OFFSET 1.281006 3.013344 0.375733
											}
										}
									}
								}
								JOINT RightHandPinky1
								{
									OFFSET -10.518692 -0.960396 -5.730441
									CHANNELS 3 Xrotation Yrotation Zrotation
									JOINT RightHandPinky2
									{
										OFFSET -2.861649 0.000000 0.000000
										CHANNELS 3 Xrotation Yrotation Zrotation
										JOINT RightHandPinky3
										{
											OFFSET -2.863380 0.000000 0.000000
											CHANNELS 3 Xrotation Yrotation Zrotation
											End Site
											{
												OFFSET 0.843597 2.711159 0.369971
											}
										}
									}
								}
							}
							JOINT RSleeve
							{
								OFFSET -6.676277 -0.344902 -1.011730
								CHANNELS 3 Xrotation Yrotation Zrotation
								End Site
								{
									OFFSET 0.000000 14.885353 0.000000
								}
							}
						}
					}
				}
				JOINT Backpack
				{
					OFFSET 0.000000 -2.471497 36.677502
					CHANNELS 3 Xrotation Yrotation Zrotation
					End Site
					{
						OFFSET 0.000000 20.427315 0.000000
					}
				}
				JOINT Hood
				{
					OFFSET 0.000000 18.754097 -10.431000
					CHANNELS 3 Xrotation Yrotation Zrotation
					JOINT Hood1
					{
						OFFSET 0.000000 -5.011002 -7.685901
						CHANNELS 3 Xrotation Yrotation Zrotation
						End Site
						{
							OFFSET 0.000000 9.175140 0.000000
						}
					}
				}
				JOINT LHoodieString
				{
					OFFSET 5.250500 16.397697 3.089900
					CHANNELS 3 Xrotation Yrotation Zrotation
					JOINT LHoodieString1
					{
						OFFSET 0.257700 -6.364304 3.694600
						CHANNELS 3 Xrotation Yrotation Zrotation
						JOINT LHoodieString2
						{
							OFFSET 0.000000 -9.643799 2.679100
							CHANNELS 3 Xrotation Yrotation Zrotation
							End Site
							{
								OFFSET 0.000000 10.009018 0.000000
							}
						}
					}
				}
				JOINT RHoodieString
				{
					OFFSET -5.250500 16.397697 3.089900
					CHANNELS 3 Xrotation Yrotation Zrotation
					JOINT RHoodieString1
					{
						OFFSET -0.257700 -6.364304 3.694600
						CHANNELS 3 Xrotation Yrotation Zrotation
						JOINT RHoodieString2
						{
							OFFSET 0.000000 -9.643799 2.679100
							CHANNELS 3 Xrotation Yrotation Zrotation
							End Site
							{
								OFFSET 0.000000 10.009018 0.000000
							}
						}
					}
				}
			}
			JOINT LBackpack_Strap
			{
				OFFSET 15.223200 -7.719803 -6.610900
				CHANNELS 3 Xrotation Yrotation Zrotation
				End Site
				{
					OFFSET 0.000000 16.040596 0.000000
				}
			}
			JOINT RBackpack_Strap
			{
				OFFSET -15.223000 -7.719803 -6.610900
				CHANNELS 3 Xrotation Yrotation Zrotation
				End Site
				{
					OFFSET 0.000000 16.040596 0.000000
				}
			}
		}
	}
	JOINT BoyFacialAnim_Joint
	{
		OFFSET 1.000000 -82.208099 -1.550900
		CHANNELS 3 Xrotation Yrotation Zrotation
		End Site
		{
			OFFSET 0.000000 30.012791 0.000000
		}
	}
}
MOTION
Frames: 4
Frame Time: 0.016667
4.608852 70.135612 1.521090 -3.066921 -42.995146 17.645695 -0.000001 0.000001 -0.000003 -26.069608 31.780966 -2.898318 58.563053 3.462135 3.376689 -22.797269 19.686398 -5.323528 -0.000000 0.000000 0.000000 -0.000000 0.000000 0.000000 -0.000000 -0.000001 0.000001 -35.482003 9.638829 -36.631650 66.172047 4.614556 -9.119725 -25.353481 -7.208057 20.939111 -0.000000 -0.000000 -0.000000 -0.000000 -0.000000 -0.000000 0.000004 0.000001 0.000000 0.349140 -1.848626 7.205788 0.027303 -1.386084 5.062937 -0.080031 -1.272387 5.054163 -11.424520 3.372350 7.860915 -19.486306 29.446264 -6.823219 0.000001 0.000001 -0.000000 0.000001 0.000001 -0.000000 0.000001 0.000001 -0.000000 -0.548178 2.093934 14.135927 -33.452060 -33.142007 -47.500749 -0.000597 -87.864414 -0.000586 -23.599355 -10.877272 -3.087990 14.035356 -26.979131 7.263432 13.226163 36.584880 -28.243003 0.000000 -0.000000 -0.000001 0.201888 1.658377 -13.881092 0.378669 2.256065 -19.053516 0.000001 0.000000 -0.000002 0.201426 1.656499 -13.865111 0.379297 2.257890 -19.069526 0.000000 0.000000 0.000002 0.201890 1.658372 -13.881102 0.378663 2.256064 -19.053511 -0.000001 -0.000000 -0.000000 1.160833 5.598139 -13.431389 0.380581 -1.801554 -19.536747 -0.000000 0.000001 -0.000002 0.000001 0.000000 -0.000000 -0.011249 -5.892449 7.391180 118.821126 72.028129 -83.805875 -0.000008 25.801460 0.000018 -19.295728 3.278937 -3.516601 40.606608 -3.110582 26.124227 -37.849476 -44.265025 -46.874967 -0.000000 0.000001 0.000002 3.635357 -6.111018 61.464469 7.728642 -6.904472 96.464449 -0.000004 -0.000003 0.000005 3.635343 -6.111009 61.464449 7.728628 -6.904470 96.464449 0.000003 0.000004 -0.000001 3.635344 -6.110991 61.464456 7.728609 -6.904482 96.464449 -0.000003 0.000000 0.000002 3.635343 -6.110991 61.464463 7.728658 -6.904483 96.464435 -0.000005 -0.000001 0.000000 -0.000002 -0.000001 -0.000001 0.000001 -0.000002 -0.000001 0.000001 -0.000002 -0.000001 0.000001 -0.000002 -0.000001 0.000001 -0.000002 -0.000001 0.000001 -0.000002 -0.000002 0.000001 -0.000002 -0.000003 0.000001 -0.000002 -0.000001 0.000001 -0.000002 -0.000002 0.000001 -0.000002 -0.000003 0.000001 -0.000001 -0.000000 0.000001 -0.000001 -0.000000 -0.000001 0.000001 -0.000003 
4.974588 70.357285 1.554209 -2.235421 -42.515889 18.232743 0.000000 0.000003 0.000001 -26.503569 31.200526 -3.472388 57.886161 3.639485 2.810796 -22.483012 19.728190 -4.772341 0.000000 0.000000 -0.000000 0.000000 0.000000 0.000000 -0.000001 -0.000001 -0.000000 -36.280660 9.651281 -36.422318 65.545337 4.423753 -9.122770 -24.674608 -6.813312 20.912825 0.000000 -0.000000 -0.000000 0.000000 -0.000000 -0.000000 -0.000001 0.000001 -0.000005 0.394008 -1.584078 7.187535 0.080687 -1.191923 5.048745 -0.026334 -1.085813 5.036022 -11.396557 3.371370 7.365480 -19.078935 28.735586 -7.123460 0.000002 0.000001 -0.000000 0.000002 0.000001 -0.000000 0.000002 0.000001 -0.000000 -0.621170 2.423845 13.794277 -32.468359 -33.363729 -47.016639 0.000439 -89.505271 0.000577 -24.397900 -11.122546 -2.975581 14.573646 -27.004423 6.829630 13.798574 36.351291 -28.336092 -0.000000 -0.000000 0.000002 0.215241 1.711485 -14.335244 0.390034 2.288690 -19.340147 -0.000000 0.000000 -0.000003 0.214766 1.709615 -14.319251 0.390672 2.290502 -19.356150 0.000001 0.000001 0.000000 0.215244 1.711479 -14.335252 0.390030 2.288688 -19.340145 -0.000001 0.000000 0.000001 1.205589 5.643522 -13.888379 0.392219 -1.769029 -19.822551 -0.000000 0.000001 0.000002 -0.000000 0.000000 0.000001 -0.002584 -5.888134 7.492396 118.408542 71.656000 -83.809228 0.000006 25.428883 -0.000015 -19.616669 4.100306 -3.061034 40.606619 -3.110583 26.124230 -37.849480 -44.265029 -46.874967 0.000002 0.000004 0.000002 3.635352 -6.111019 61.464463 7.728638 -6.904479 96.464449 -0.000001 -0.000001 0.000003 3.635345 -6.111008 61.464456 7.728631 -6.904475 96.464449 -0.000003 -0.000002 0.000005 3.635346 -6.110992 61.464456 7.728614 -6.904484 96.464449 -0.000001 -0.000002 0.000002 3.635342 -6.110989 61.464463 7.728657 -6.904488 96.464435 0.000001 -0.000002 0.000003 -0.000000 -0.000001 0.000001 -0.000002 -0.000001 -0.000002 -0.000002 -0.000001 -0.000002 -0.000002 -0.000001 -0.000002 -0.000002 -0.000001 -0.000002 -0.000002 -0.000001 -0.000000 -0.000002 -0.000004 -0.000002 -0.000002 -0.000001 -0.000002 -0.000002 -0.000001 -0.000000 -0.000002 -0.000004 -0.000002 -0.000001 -0.000001 -0.000000 -0.000001 -0.000001 -0.000000 0.000000 0.000003 0.000001 
5.332373 70.651054 1.555943 -1.350211 -42.074389 18.834779 0.000000 0.000001 -0.000000 -26.862195 30.804215 -4.015546 56.937184 3.848493 2.347290 -22.004127 19.626678 -4.271532 -0.000000 -0.000000 -0.000000 -0.000000 -0.000000 -0.000000 -0.000000 0.000000 0.000000 -37.263101 9.453861 -36.136284 64.814513 4.185185 -9.153015 -23.982956 -6.070820 20.741070 0.000000 -0.000000 0.000000 0.000000 -0.000000 0.000000 0.000001 -0.000003 -0.000000 0.450033 -1.308988 7.148826 0.140024 -0.990037 5.027505 0.034599 -0.892064 5.011685 -11.378207 3.392041 6.943745 -18.730001 28.242395 -7.478152 0.000001 0.000001 -0.000001 0.000001 0.000001 -0.000001 0.000001 0.000001 -0.000001 -0.713342 2.845078 13.378914 -31.471750 -33.569451 -46.626235 0.002920 -90.797004 0.002973 -24.660337 -11.610474 -3.034257 15.085009 -27.036501 6.348048 14.365828 36.116804 -28.425004 0.000000 -0.000001 0.000000 0.228966 1.764288 -14.787769 0.401521 2.321130 -19.625743 0.000000 0.000000 -0.000003 0.228475 1.762422 -14.771766 0.402168 2.322941 -19.641742 -0.000000 -0.000001 0.000002 0.228968 1.764281 -14.787773 0.401512 2.321131 -19.625743 -0.000000 -0.000001 -0.000001 1.250555 5.688373 -14.343764 0.403970 -1.736682 -20.107332 -0.000001 -0.000001 -0.000000 0.000000 -0.000000 -0.000001 0.007041 -5.858263 7.548153 118.019590 71.112535 -83.953420 -0.000009 25.056443 0.000003 -20.278285 5.167647 -2.331177 40.606608 -3.110582 26.124227 -37.849473 -44.265029 -46.874963 0.000000 0.000001 0.000002 3.635353 -6.111016 61.464469 7.728639 -6.904473 96.464449 -0.000005 -0.000004 0.000005 3.635342 -6.111007 61.464456 7.728629 -6.904475 96.464449 0.000001 0.000003 0.000002 3.635341 -6.110990 61.464456 7.728610 -6.904478 96.464462 -0.000002 0.000001 0.000000 3.635342 -6.110989 61.464463 7.728653 -6.904490 96.464435 -0.000001 -0.000002 -0.000000 -0.000001 -0.000000 -0.000000 0.000001 -0.000002 0.000001 0.000001 -0.000002 0.000001 0.000001 -0.000002 0.000001 0.000001 -0.000002 0.000001 0.000001 -0.000002 0.000001 -0.000001 0.000003 -0.000000 0.000001 -0.000002 0.000001 0.000001 -0.000002 0.000001 -0.000001 0.000003 -0.000000 -0.000001 -0.000002 0.000002 -0.000001 -0.000002 0.000002 0.000000 0.000001 -0.000000 
5.673845 71.007591 1.530237 -0.440362 -41.642810 19.429320 -0.000000 -0.000002 0.000002 -27.124527 30.625749 -4.535393 55.737113 4.063777 2.040453 -21.372821 19.366776 -3.830550 0.000000 0.000000 0.000000 0.000000 0.000000 0.000000 0.000001 0.000000 0.000000 -38.346031 9.053941 -35.873909 63.902492 3.925099 -9.199177 -23.188330 -5.109634 20.510638 -0.000000 0.000000 0.000000 -0.000000 0.000000 0.000000 -0.000001 -0.000000 0.000000 0.508106 -1.040803 7.088531 0.196462 -0.793571 5.000022 0.093394 -0.702939 4.982098 -11.340862 3.432825 6.607826 -18.475199 27.971494 -7.838871 0.000004 -0.000001 0.000001 0.000004 -0.000001 0.000001 0.000004 -0.000001 0.000001 -0.812577 3.306774 12.932780 -30.510516 -33.820621 -46.309349 -0.001492 -91.652806 -0.001513 -24.475990 -12.258165 -3.030209 15.587004 -27.071559 5.859855 14.927373 35.881702 -28.509749 0.000000 -0.000000 0.000000 0.243036 1.816747 -15.238212 0.413114 2.353358 -19.910020 -0.000000 0.000001 -0.000002 0.242532 1.814886 -15.222224 0.413765 2.355172 -19.926027 -0.000000 -0.000000 -0.000002 0.243044 1.816740 -15.238220 0.413105 2.353357 -19.910013 -0.000001 0.000002 -0.000003 1.295662 5.732672 -14.797130 0.415833 -1.704552 -20.390780 -0.000001 0.000002 0.000000 -0.000000 0.000000 0.000000 0.016835 -5.810536 7.566559 117.834369 70.381411 -84.393776 -0.000009 24.613633 0.000023 -21.332914 6.419933 -1.469735 40.606602 -3.110582 26.124230 -37.849486 -44.265032 -46.874963 -0.000000 0.000003 0.000001 3.635355 -6.111018 61.464469 7.728639 -6.904479 96.464449 0.000001 0.000001 0.000004 3.635338 -6.111006 61.464449 7.728630 -6.904479 96.464456 0.000003 0.000002 0.000000 3.635343 -6.110992 61.464449 7.728613 -6.904480 96.464449 -0.000003 -0.000002 0.000002 3.635342 -6.110990 61.464463 7.728657 -6.904491 96.464428 -0.000003 -0.000000 -0.000003 -0.000000 -0.000000 -0.000000 -0.000001 0.000003 0.000004 -0.000001 0.000003 0.000004 -0.000001 0.000003 0.000004 -0.000001 0.000003 0.000004 -0.000001 0.000003 0.000003 -0.000001 0.000001 -0.000000 -0.000001 0.000003 0.000004 -0.000001 0.000003 0.000003 -0.000001 0.000001 -0.000000 0.000002 -0.000000 -0.000001 0.000002 -0.000000 -0.000001 -0.000000 -0.000002 0.000002 
